<?xml version="1.0" encoding="UTF-8" ?>
<!DOCTYPE svg PUBLIC "-//W3C//DTD SVG 1.1//EN" "http://www.w3.org/Graphics/SVG/1.1/DTD/svg11.dtd">
<svg width="320pt" height="568pt" viewBox="0 0 320 568" version="1.1" xmlns="http://www.w3.org/2000/svg">
<path fill="#ffffff" d=" M 0.00 0.00 L 320.00 0.00 L 320.00 568.00 L 0.00 568.00 L 0.00 0.00 Z" />
<path fill="#505663" d=" M 78.87 57.47 C 132.90 53.66 186.95 49.51 241.02 45.75 C 254.73 44.48 268.89 49.64 278.45 59.56 C 282.44 63.89 286.58 68.07 290.31 72.63 C 297.65 80.56 305.78 88.64 308.38 99.53 C 311.13 107.82 309.32 116.59 310.49 125.09 C 311.71 134.38 310.33 143.79 311.43 153.09 C 312.57 161.37 311.66 169.74 312.11 178.05 C 313.44 189.63 313.03 201.31 313.33 212.94 C 313.66 218.29 312.57 223.56 310.80 228.58 C 306.72 239.04 298.70 247.84 288.62 252.79 C 284.02 254.87 279.12 256.39 274.09 256.93 C 270.09 257.09 266.07 256.91 262.09 257.39 C 251.75 258.54 241.32 257.41 230.99 258.56 C 221.39 259.38 211.72 258.52 202.13 259.54 C 192.45 260.36 182.72 259.55 173.06 260.53 C 163.36 261.30 153.62 260.63 143.93 261.49 C 141.62 261.82 138.91 261.17 136.99 262.81 C 121.64 274.47 106.36 286.22 90.93 297.77 C 87.06 294.63 83.59 291.04 79.83 287.77 C 79.45 284.85 79.03 281.93 79.01 278.99 C 79.06 273.36 77.71 267.83 77.97 262.20 C 74.24 260.94 70.43 259.77 67.00 257.78 C 60.87 254.28 54.52 251.20 48.33 247.81 C 36.95 241.30 28.53 229.81 25.88 216.96 C 24.56 211.75 25.19 206.31 24.12 201.06 C 24.27 193.99 22.69 187.06 22.91 180.00 C 22.03 175.33 21.98 170.60 21.87 165.87 C 20.51 159.94 21.50 153.82 20.20 147.89 C 19.82 135.53 18.17 123.27 17.81 110.90 C 16.33 98.98 19.71 86.57 27.13 77.10 C 31.99 70.43 38.97 65.60 46.41 62.21 C 56.71 57.95 68.02 58.60 78.87 57.47 Z" />
<path fill="#ffffff" d=" M 175.21 56.32 C 198.48 54.88 221.71 52.92 244.98 51.40 C 255.60 51.52 266.33 55.53 273.80 63.19 C 281.62 70.59 286.21 81.32 286.17 92.09 C 287.43 97.59 286.51 103.28 287.61 108.80 C 288.36 112.54 287.66 116.37 288.27 120.13 C 289.47 125.70 288.53 131.46 289.77 137.03 C 289.77 144.41 291.14 151.68 291.09 159.07 C 292.21 164.94 291.66 170.94 292.61 176.83 C 293.13 180.36 292.83 183.96 293.23 187.51 C 294.87 196.90 292.79 206.83 287.98 215.02 C 281.48 225.95 269.75 233.64 257.07 234.90 C 213.04 238.15 168.99 241.38 124.95 244.53 C 121.36 244.65 119.10 247.72 116.47 249.71 C 105.91 258.19 95.72 267.14 84.95 275.33 C 84.51 272.24 84.12 269.14 84.04 266.02 C 84.03 259.95 82.70 253.96 82.97 247.88 C 75.21 247.89 67.18 249.06 59.69 246.42 C 46.43 242.45 35.68 231.31 32.25 217.89 C 30.72 213.04 31.11 207.90 30.37 202.91 C 28.09 170.25 25.54 137.62 23.29 104.97 C 23.57 88.95 33.85 73.64 48.80 67.71 C 55.14 64.86 62.16 64.83 68.94 64.04 C 75.68 64.19 82.29 62.68 89.03 62.87 C 95.00 61.64 101.13 62.43 107.09 61.26 C 111.44 60.72 115.87 61.37 120.17 60.34 C 125.42 59.77 130.75 60.20 135.95 59.09 C 143.03 59.34 149.96 57.71 157.04 57.91 C 163.04 56.69 169.20 57.41 175.21 56.32 Z" />
<path fill="#000001" d=" M 107.33 334.42 C 110.22 332.32 115.23 332.50 116.85 336.10 C 117.65 338.17 118.71 340.57 117.73 342.76 C 113.35 343.21 109.16 344.77 105.84 347.72 C 103.99 345.87 101.59 342.93 103.39 340.28 C 104.83 338.41 106.08 336.42 107.33 334.42 Z" />
<path fill="#732e03" d=" M 109.02 334.63 C 111.11 334.12 113.92 333.73 115.27 335.87 C 116.72 337.40 116.65 339.62 116.92 341.58 C 112.94 342.05 109.43 343.90 105.99 345.81 C 104.20 345.31 103.74 342.72 104.25 341.19 C 105.83 339.00 107.39 336.78 109.02 334.63 Z" />
<path fill="#000001" d=" M 125.51 335.75 C 127.80 335.32 130.99 335.12 132.39 337.41 C 133.43 339.34 134.97 340.95 136.01 342.88 C 136.97 345.39 135.19 347.96 133.22 349.39 C 129.97 346.46 125.76 345.23 121.55 344.44 C 122.04 341.31 122.01 337.13 125.51 335.75 Z" />
<path fill="#732e03" d=" M 122.38 343.36 C 123.22 341.02 123.39 337.82 126.04 336.72 C 127.81 336.07 129.55 336.98 131.23 337.46 C 132.07 339.54 133.49 341.30 134.75 343.14 C 135.49 344.95 134.40 346.62 133.31 347.98 C 130.18 345.38 126.23 344.35 122.38 343.36 Z" />
<path fill="#000001" d=" M 109.77 350.88 C 114.22 347.59 120.30 346.91 125.47 348.78 C 128.77 350.08 131.55 352.37 134.20 354.68 C 136.28 354.66 138.75 353.99 140.43 355.63 C 145.00 359.45 148.17 364.58 151.88 369.17 C 156.69 370.38 158.84 376.07 156.07 380.19 C 163.13 389.00 171.32 398.41 171.82 410.28 C 174.02 413.06 175.64 416.23 176.49 419.68 C 179.96 418.92 183.70 418.10 185.89 415.01 C 183.55 412.48 180.50 409.62 180.83 405.87 C 181.36 403.36 183.85 402.39 186.12 402.09 C 188.00 398.43 186.98 393.11 190.90 390.75 C 195.37 389.16 198.11 393.84 197.84 397.70 C 200.64 397.68 202.98 398.98 204.15 401.54 C 205.57 402.05 207.45 402.09 208.28 403.57 C 209.71 406.70 208.11 410.48 205.54 412.49 C 202.36 414.78 199.89 418.48 195.55 418.48 C 193.20 425.28 188.20 432.68 180.23 432.82 C 184.88 445.70 187.37 459.31 187.99 472.97 C 188.36 480.98 189.58 488.93 189.74 496.93 C 185.68 498.89 180.65 498.90 176.32 500.43 C 171.68 504.59 166.38 508.04 160.51 510.23 C 160.54 515.27 160.85 520.31 160.78 525.35 C 165.31 527.68 171.12 529.19 173.26 534.35 C 173.25 536.70 171.89 539.20 169.18 538.83 C 164.06 538.61 158.31 539.95 153.83 536.80 C 151.23 539.48 147.33 539.16 143.95 538.72 C 142.14 538.45 140.42 536.98 140.24 535.11 C 139.91 531.77 140.11 528.41 140.11 525.07 C 138.90 525.02 137.70 524.97 136.49 524.94 C 136.41 521.93 136.47 518.93 136.47 515.93 C 125.30 516.77 114.10 516.53 102.92 516.04 C 102.93 519.01 102.93 521.99 102.93 524.97 C 101.83 524.99 100.73 525.03 99.63 525.07 C 99.15 529.32 101.30 535.08 97.31 538.09 C 93.66 539.54 88.93 539.55 85.77 536.92 C 81.04 539.89 75.18 538.68 69.89 538.80 C 67.46 539.00 66.53 536.44 66.59 534.45 C 68.20 529.21 74.20 527.72 78.56 525.52 C 78.48 520.40 78.84 515.28 78.84 510.16 C 73.16 508.01 68.05 504.62 63.50 500.61 C 59.02 499.06 54.17 498.50 49.58 497.19 C 50.11 489.08 51.23 481.01 51.55 472.88 C 52.26 459.25 54.92 445.77 59.20 432.82 C 55.24 431.96 50.80 431.60 47.62 434.63 C 48.55 436.00 49.67 437.44 49.36 439.24 C 48.54 440.84 47.00 441.89 45.71 443.10 C 46.32 445.02 47.78 447.32 46.03 449.10 C 44.05 452.07 39.69 450.27 38.26 447.67 C 36.51 445.39 36.85 442.39 36.87 439.71 C 35.74 443.32 32.06 448.15 27.91 445.37 C 26.92 442.42 22.66 441.50 23.16 437.95 C 23.42 434.59 26.77 432.97 29.47 431.77 C 32.41 430.27 35.74 429.93 38.98 429.75 C 42.80 424.75 47.62 419.81 54.07 418.63 C 57.16 417.90 60.20 419.04 63.09 420.02 C 63.86 416.77 65.24 413.72 67.25 411.05 C 67.40 398.88 75.79 389.23 82.96 380.22 C 81.58 377.26 81.14 373.25 84.01 371.00 C 89.72 368.18 92.00 361.71 96.54 357.52 C 99.85 353.40 105.80 353.97 109.77 350.88 Z" />
<path fill="#ffffff" d=" M 109.77 352.61 C 114.95 348.84 122.20 348.18 127.72 351.63 C 122.39 350.95 116.63 349.91 111.76 352.90 C 111.10 352.93 110.43 352.84 109.77 352.61 Z" />
<path fill="#fdccac" d=" M 111.76 352.90 C 116.63 349.91 122.39 350.95 127.72 351.63 C 130.70 353.54 133.99 355.79 135.81 358.79 C 133.20 358.26 130.67 356.87 127.91 357.46 C 124.83 357.67 122.54 359.96 120.67 362.18 C 119.20 357.90 115.74 354.81 111.76 352.90 Z" />
<path fill="#ffffff" d=" M 103.19 354.90 C 109.59 351.81 118.26 355.94 119.47 363.05 C 121.56 370.76 113.74 378.61 106.03 376.93 C 100.46 376.07 95.85 370.81 96.28 365.10 C 96.18 360.66 99.22 356.64 103.19 354.90 Z" />
<path fill="#732e03" d=" M 135.90 355.96 C 137.46 356.26 139.32 356.19 140.44 357.54 C 144.06 361.09 147.06 365.22 150.00 369.34 C 147.49 370.97 146.08 368.02 144.62 366.49 C 141.85 362.86 138.51 359.71 135.90 355.96 Z" />
<path fill="#ffffff" d=" M 126.14 359.06 C 132.24 356.18 140.15 362.30 138.07 368.95 C 136.42 375.91 126.14 377.55 122.25 371.66 C 118.82 367.49 121.12 360.68 126.14 359.06 Z" />
<path fill="#6f7074" d=" M 137.38 360.39 C 137.63 360.64 137.63 360.64 137.38 360.39 Z" />
<path fill="#732e03" d=" M 89.00 369.46 C 90.93 366.68 92.95 363.96 95.34 361.56 C 95.74 365.02 93.23 370.80 89.00 369.46 Z" />
<path fill="#fdccac" d=" M 138.73 364.16 C 139.09 363.57 139.46 363.00 139.84 362.43 C 145.17 369.97 151.64 376.66 157.27 384.00 C 163.20 391.15 169.19 399.11 170.17 408.65 C 165.15 417.21 156.72 425.07 146.37 425.61 C 149.97 419.57 149.77 412.40 149.53 405.62 C 151.38 404.04 153.21 402.45 155.03 400.85 C 155.59 401.48 156.70 402.75 157.26 403.39 C 156.72 402.05 156.46 400.58 155.60 399.41 C 154.48 397.97 152.48 398.27 150.88 397.96 C 151.69 398.43 153.31 399.38 154.12 399.86 C 146.41 407.48 135.91 412.30 125.07 412.86 C 110.65 414.37 95.20 410.45 84.96 399.77 C 85.84 399.33 87.61 398.47 88.49 398.04 C 87.15 398.17 85.80 398.25 84.48 398.56 C 82.89 399.54 82.57 401.59 81.76 403.14 C 82.34 402.58 83.49 401.46 84.07 400.90 C 85.89 402.46 87.73 404.02 89.58 405.55 C 89.43 412.32 89.09 419.51 92.69 425.57 C 86.88 425.45 81.74 422.21 77.23 418.85 C 73.41 415.73 70.21 411.64 69.13 406.74 C 70.37 399.94 74.12 393.89 78.25 388.46 C 83.70 381.58 89.27 374.81 94.96 368.12 C 96.53 375.06 103.39 379.99 110.51 378.94 C 106.88 381.03 103.09 383.70 101.80 387.91 C 100.04 392.32 102.07 397.40 105.46 400.43 C 111.29 405.62 119.99 406.61 127.23 404.18 C 132.48 402.36 137.55 397.98 137.84 392.08 C 138.32 386.35 133.85 381.53 128.91 379.36 C 124.04 376.92 118.41 377.24 113.18 378.00 C 116.10 376.34 118.58 373.99 120.05 370.94 C 122.19 375.62 127.99 378.55 132.91 376.51 C 137.81 375.02 141.05 368.91 138.73 364.16 Z" />
<path fill="#000001" d=" M 112.52 366.15 C 113.56 364.50 115.83 366.51 114.73 367.91 C 113.71 369.51 111.45 367.52 112.52 366.15 Z" />
<path fill="#000001" d=" M 124.68 366.18 C 125.69 364.64 128.23 366.48 126.95 367.90 C 125.89 369.33 123.55 367.57 124.68 366.18 Z" />
<path fill="#f3aa97" d=" M 83.92 378.94 C 81.66 374.70 85.56 369.53 90.27 370.86 C 88.51 373.81 86.24 376.41 83.92 378.94 Z" />
<path fill="#f3aa97" d=" M 148.76 370.92 C 153.31 369.40 157.76 374.77 154.79 378.76 C 152.73 376.18 150.60 373.66 148.76 370.92 Z" />
<path fill="#f3aa97" d=" M 115.13 379.17 C 122.27 377.81 130.87 379.67 134.98 386.17 C 137.76 390.70 136.07 396.80 131.92 399.88 C 125.09 405.13 114.71 405.20 107.69 400.27 C 103.95 397.67 101.58 392.62 103.22 388.17 C 104.97 383.14 110.11 380.08 115.13 379.17 Z" />
<path fill="#ffffff" d=" M 111.90 385.91 C 111.91 380.83 118.23 380.53 121.98 381.12 C 124.28 381.30 128.40 382.86 126.75 385.78 C 122.76 389.57 116.21 388.87 111.90 385.91 Z" />
<path fill="#fdccac" d=" M 190.53 392.32 C 192.14 392.46 194.52 391.66 195.35 393.58 C 197.00 396.83 195.83 400.42 194.38 403.49 C 192.11 403.12 189.84 402.80 187.56 402.54 C 188.76 399.20 189.44 395.70 190.53 392.32 Z" />
<path fill="#000001" d=" M 84.48 398.56 C 85.80 398.25 87.15 398.17 88.49 398.04 C 87.61 398.47 85.84 399.33 84.96 399.77 C 95.20 410.45 110.65 414.37 125.07 412.86 C 135.91 412.30 146.41 407.48 154.12 399.86 C 153.31 399.38 151.69 398.43 150.88 397.96 C 152.48 398.27 154.48 397.97 155.60 399.41 C 156.46 400.58 156.72 402.05 157.26 403.39 C 156.70 402.75 155.59 401.48 155.03 400.85 C 153.21 402.45 151.38 404.04 149.53 405.62 C 149.77 412.40 149.97 419.57 146.37 425.61 C 143.63 429.56 139.60 432.61 134.93 433.88 C 127.84 435.86 120.39 435.24 113.12 435.22 C 105.36 435.15 97.02 432.44 92.69 425.57 C 89.09 419.51 89.43 412.32 89.58 405.55 C 87.73 404.02 85.89 402.46 84.07 400.90 C 83.49 401.46 82.34 402.58 81.76 403.14 C 82.57 401.59 82.89 399.54 84.48 398.56 Z" />
<path fill="#fdccac" d=" M 193.48 407.23 C 195.02 404.66 196.47 402.03 197.74 399.32 C 199.64 399.47 201.91 399.72 202.48 401.93 C 201.90 404.75 200.08 407.31 197.96 409.22 C 195.97 410.75 194.67 408.50 193.48 407.23 Z" />
<path fill="#fdccac" d=" M 184.09 404.15 C 186.98 403.43 190.03 403.93 192.92 404.45 C 193.95 407.32 190.06 407.77 188.12 408.06 L 188.06 409.04 C 189.64 408.86 191.22 408.68 192.80 408.47 C 193.88 410.68 196.21 411.12 198.47 410.69 C 199.56 411.75 200.68 412.80 201.79 413.86 C 199.83 415.38 197.67 417.38 194.94 416.76 C 189.83 415.90 184.56 413.13 182.58 408.06 C 182.40 406.64 182.24 404.48 184.09 404.15 Z" />
<path fill="#fdccac" d=" M 203.31 403.77 C 204.08 403.66 205.62 403.44 206.39 403.33 C 208.78 406.76 205.95 410.64 203.12 412.72 C 201.98 411.88 199.74 411.16 200.23 409.33 C 201.16 407.42 202.35 405.66 203.31 403.77 Z" />
<path fill="#f3aa97" d=" M 69.13 406.74 C 70.21 411.64 73.41 415.73 77.23 418.85 C 81.74 422.21 86.88 425.45 92.69 425.57 C 97.02 432.44 105.36 435.15 113.12 435.22 C 120.39 435.24 127.84 435.86 134.93 433.88 C 139.60 432.61 143.63 429.56 146.37 425.61 C 156.72 425.07 165.15 417.21 170.17 408.65 C 170.49 415.19 168.29 421.91 163.61 426.57 C 157.29 433.32 148.04 436.22 139.15 437.65 C 127.83 439.14 116.34 439.00 104.97 438.24 C 93.94 437.22 82.01 434.22 74.48 425.49 C 69.94 420.42 68.43 413.38 69.13 406.74 Z" />
<path fill="#6f7074" d=" M 66.43 429.50 C 63.48 424.66 64.02 418.32 67.32 413.79 C 68.32 418.24 69.88 422.66 72.78 426.26 C 76.51 431.41 82.61 433.91 87.06 438.30 C 87.62 438.82 88.22 439.30 88.84 439.75 C 97.49 446.20 105.82 453.08 114.42 459.60 C 115.97 460.76 117.39 462.07 118.74 463.46 C 107.18 459.49 95.76 455.10 84.31 450.84 C 83.98 448.77 83.65 446.72 83.32 444.66 C 81.29 444.61 79.26 444.56 77.23 444.48 C 73.88 439.31 69.71 434.72 66.43 429.50 Z" />
<path fill="#6f7074" d=" M 167.53 424.61 C 169.92 421.13 170.97 417.00 171.93 412.96 C 175.32 417.68 176.51 424.26 173.26 429.38 C 169.87 434.62 165.82 439.41 162.27 444.55 C 160.28 444.58 158.30 444.62 156.32 444.67 C 155.97 446.76 155.62 448.86 155.27 450.97 C 143.80 455.07 132.42 459.42 120.95 463.52 C 121.79 462.49 122.73 461.54 123.75 460.69 C 134.46 452.47 145.01 444.03 155.63 435.68 C 159.81 432.25 164.59 429.28 167.53 424.61 Z" />
<path fill="#6f7074" d=" M 187.18 415.68 C 189.47 416.61 191.73 417.58 193.99 418.58 C 191.54 424.60 187.27 431.22 179.98 431.29 C 178.99 430.59 178.01 429.90 177.03 429.21 C 181.74 439.66 183.96 451.03 185.68 462.30 L 185.55 462.44 C 181.44 466.72 178.40 472.01 173.54 475.55 C 158.65 487.44 139.31 491.97 120.60 492.76 C 120.59 484.17 120.54 475.59 120.58 467.00 C 120.08 465.17 122.11 464.87 123.28 464.32 C 134.44 460.21 145.61 456.14 156.75 451.96 C 156.99 450.05 157.22 448.15 157.45 446.26 C 159.73 445.78 162.88 446.65 164.30 444.31 C 167.49 439.86 170.91 435.59 174.00 431.07 C 176.10 428.18 176.35 424.53 177.17 421.18 C 180.87 420.01 184.95 419.25 187.18 415.68 Z" />
<path fill="#6f7074" d=" M 40.81 429.88 C 44.32 425.25 49.12 421.12 55.03 420.20 C 57.61 419.73 60.11 420.76 62.55 421.43 C 63.17 425.32 64.00 429.35 66.56 432.49 C 69.92 436.79 72.95 441.35 76.44 445.55 C 78.28 446.05 80.22 446.02 82.11 446.21 C 82.35 448.14 82.61 450.06 82.87 451.99 C 94.92 456.41 106.95 460.87 118.98 465.34 C 118.94 465.91 118.84 467.04 118.80 467.61 C 117.94 475.82 118.73 484.09 118.23 492.32 C 112.00 492.71 105.81 491.75 99.74 490.42 C 85.63 487.79 71.73 481.82 61.57 471.46 C 58.57 468.25 55.27 464.91 54.33 460.45 C 55.74 449.96 58.11 439.48 62.33 429.74 C 61.29 430.31 60.26 430.88 59.22 431.45 C 54.93 429.80 50.20 430.44 46.71 433.49 C 44.81 432.18 42.85 430.95 40.81 429.88 Z" />
<path fill="#f77f78" d=" M 108.39 434.25 C 108.59 430.34 111.20 427.20 115.05 426.46 C 116.59 427.22 118.07 428.10 119.42 429.17 C 121.35 427.92 123.53 425.96 125.98 427.10 C 129.12 427.98 130.23 431.34 130.69 434.22 C 123.26 434.55 115.82 434.50 108.39 434.25 Z" />
<path fill="#fdccac" d=" M 26.37 435.25 C 30.97 432.39 37.17 429.62 42.40 432.44 C 44.93 433.94 47.36 436.07 48.06 439.06 C 46.68 440.20 45.31 441.36 43.92 442.49 C 44.43 444.13 45.02 445.74 45.62 447.35 C 44.26 449.56 41.03 449.38 39.76 447.18 C 36.88 444.49 40.81 438.86 36.14 437.55 C 32.66 437.89 29.98 440.48 26.76 441.64 C 24.50 440.08 23.77 436.90 26.37 435.25 Z" />
<path fill="#cedde5" d=" M 87.06 438.30 C 88.44 436.69 90.55 437.12 92.23 437.98 C 98.94 440.19 106.11 440.54 113.13 440.84 C 112.11 441.92 111.08 442.97 110.04 444.03 C 105.18 443.55 100.35 442.85 95.47 442.68 L 95.07 442.66 C 93.39 441.22 91.69 439.79 90.00 438.37 C 89.71 438.71 89.13 439.40 88.84 439.75 C 88.22 439.30 87.62 438.82 87.06 438.30 Z" />
<path fill="#cedde5" d=" M 126.17 440.79 C 134.72 440.80 143.21 439.36 151.39 436.91 C 149.22 438.86 146.89 440.62 144.58 442.42 C 139.46 442.67 134.40 443.72 129.27 443.69 C 128.15 442.81 127.19 441.76 126.17 440.79 Z" />
<path fill="#f3aa97" d=" M 27.95 442.92 C 30.39 441.71 32.74 440.35 35.15 439.09 C 34.79 441.95 32.70 443.97 30.23 445.19 C 29.66 444.63 28.52 443.49 27.95 442.92 Z" />
<path fill="#c7141d" d=" M 111.93 444.06 C 114.42 440.21 119.17 441.24 123.05 441.29 C 125.07 441.14 126.20 443.09 127.63 444.16 C 125.40 446.07 123.26 448.99 119.96 448.66 C 116.46 449.18 114.19 446.16 111.93 444.06 Z" />
<path fill="#ffffff" d=" M 95.47 442.68 C 100.35 442.85 105.18 443.55 110.04 444.03 C 108.08 445.89 106.16 447.79 104.19 449.64 C 101.27 447.33 98.28 445.12 95.47 442.68 Z" />
<path fill="#ffffff" d=" M 129.27 443.69 C 134.40 443.72 139.46 442.67 144.58 442.42 C 141.52 444.87 138.44 447.29 135.27 449.61 C 133.27 447.64 131.23 445.70 129.27 443.69 Z" />
<path fill="#ffffff" d=" M 105.36 450.47 C 107.30 448.70 109.19 446.87 111.01 444.98 C 112.21 446.18 113.40 447.38 114.60 448.59 C 113.64 450.92 112.78 453.30 111.76 455.62 C 109.64 453.88 107.46 452.23 105.36 450.47 Z" />
<path fill="#ffffff" d=" M 125.08 448.38 C 126.19 447.30 127.28 446.20 128.35 445.09 C 130.41 446.78 132.32 448.63 134.10 450.61 C 131.99 452.28 130.00 454.19 127.47 455.21 C 126.64 452.95 125.83 450.67 125.08 448.38 Z" />
<path fill="#c7141d" d=" M 113.07 456.79 C 113.83 454.32 114.72 451.89 115.67 449.49 C 118.43 450.06 121.26 450.06 124.05 449.71 C 124.82 451.96 125.66 454.19 126.56 456.40 C 124.40 458.34 122.13 460.16 119.85 461.98 C 117.58 460.26 115.33 458.51 113.07 456.79 Z" />
<path fill="#505663" d=" M 54.18 459.89 L 54.33 460.45 C 55.27 464.91 58.57 468.25 61.57 471.46 C 71.73 481.82 85.63 487.79 99.74 490.42 C 105.81 491.75 112.00 492.71 118.23 492.32 C 118.73 484.09 117.94 475.82 118.80 467.61 C 119.37 475.07 118.94 482.57 119.07 490.05 C 118.95 494.85 119.93 500.10 116.99 504.30 C 94.86 504.31 72.77 501.36 51.30 496.07 C 52.13 484.00 53.16 471.94 54.18 459.89 Z" />
<path fill="#000001" d=" M 65.42 460.14 C 72.00 460.66 78.41 462.30 84.91 463.38 C 84.83 465.20 84.75 467.02 84.66 468.86 C 78.20 467.67 71.75 466.43 65.27 465.41 C 65.31 463.65 65.37 461.89 65.42 460.14 Z" />
<path fill="#000001" d=" M 154.08 463.52 C 160.66 462.29 167.22 460.92 173.86 460.01 C 174.18 461.77 174.49 463.54 174.79 465.31 C 168.23 466.44 161.65 467.47 155.14 468.88 C 154.77 467.10 154.42 465.30 154.08 463.52 Z" />
<path fill="#6f7074" d=" M 65.77 461.08 C 72.07 461.24 78.07 463.34 84.32 463.92 C 84.21 465.22 84.11 466.53 84.01 467.84 C 78.07 467.11 72.29 465.38 66.29 465.08 C 66.12 463.74 65.94 462.40 65.77 461.08 Z" />
<path fill="#6f7074" d=" M 155.17 463.92 C 161.29 463.28 167.23 461.58 173.34 460.89 C 173.43 462.27 173.53 463.66 173.62 465.06 C 167.49 465.35 161.56 467.01 155.52 467.92 C 155.40 466.58 155.29 465.25 155.17 463.92 Z" />
<path fill="#505663" d=" M 173.54 475.55 C 178.40 472.01 181.44 466.72 185.55 462.44 C 186.44 466.88 186.23 471.42 186.69 475.91 C 187.15 482.63 188.05 489.32 188.24 496.06 C 166.87 501.37 144.88 504.19 122.86 504.40 C 120.18 501.06 120.33 496.79 120.60 492.76 C 139.31 491.97 158.65 487.44 173.54 475.55 Z" />
<path fill="#505663" d=" M 68.25 501.63 C 77.45 503.25 86.74 504.24 96.00 505.36 C 102.37 505.52 108.73 505.84 115.08 506.36 C 115.22 509.22 115.25 512.08 115.20 514.95 C 103.81 514.78 92.31 513.42 81.53 509.61 C 76.71 507.75 71.63 505.73 68.25 501.63 Z" />
<path fill="#505663" d=" M 115.94 507.04 C 117.25 505.77 118.50 504.45 119.93 503.33 C 121.13 504.53 122.27 505.80 123.44 507.05 C 123.62 509.70 123.66 512.37 123.60 515.04 C 120.99 515.01 118.39 514.99 115.78 514.96 C 115.78 512.32 115.84 509.67 115.94 507.04 Z" />
<path fill="#505663" d=" M 151.87 505.40 C 157.30 504.65 162.74 503.96 168.24 504.05 C 165.33 507.04 161.29 508.38 157.49 509.83 C 146.86 513.54 135.55 514.68 124.36 515.05 C 124.18 512.09 124.25 509.13 124.63 506.20 C 133.71 506.08 142.87 506.98 151.87 505.40 Z" />
<path fill="#505663" d=" M 80.42 510.98 C 87.34 513.04 94.37 514.62 101.51 515.68 C 101.50 518.25 101.51 520.83 101.56 523.42 C 94.42 523.85 87.27 523.49 80.12 523.63 C 80.16 519.41 80.29 515.20 80.42 510.98 Z" />
<path fill="#505663" d=" M 138.05 515.47 C 145.22 514.87 152.16 513.00 159.04 511.00 C 159.07 515.16 159.14 519.32 159.39 523.48 C 152.27 523.80 145.13 523.48 138.00 523.66 C 137.79 520.93 137.79 518.19 138.05 515.47 Z" />
<path fill="#ffffff" d=" M 102.92 516.04 C 114.10 516.53 125.30 516.77 136.47 515.93 C 136.47 518.93 136.41 521.93 136.49 524.94 L 136.52 525.29 C 137.23 525.54 138.66 526.04 139.37 526.30 C 139.38 528.79 139.32 531.29 139.22 533.80 C 126.17 533.86 113.12 533.57 100.07 533.99 C 100.06 531.43 100.06 528.87 100.08 526.31 C 101.03 525.85 101.98 525.41 102.93 524.97 C 102.93 521.99 102.93 519.01 102.92 516.04 Z" />
<path fill="#cedde5" d=" M 99.63 525.07 C 100.73 525.03 101.83 524.99 102.93 524.97 C 101.98 525.41 101.03 525.85 100.08 526.31 C 100.06 528.87 100.06 531.43 100.07 533.99 C 113.12 533.57 126.17 533.86 139.22 533.80 C 139.32 531.29 139.38 528.79 139.37 526.30 C 138.66 526.04 137.23 525.54 136.52 525.29 L 136.49 524.94 C 137.70 524.97 138.90 525.02 140.11 525.07 C 140.11 528.41 139.91 531.77 140.24 535.11 C 140.42 536.98 142.14 538.45 143.95 538.72 C 147.33 539.16 151.23 539.48 153.83 536.80 C 158.31 539.95 164.06 538.61 169.18 538.83 C 171.89 539.20 173.25 536.70 173.26 534.35 C 180.16 535.69 187.41 534.97 194.12 537.31 C 189.27 538.66 184.22 538.67 179.27 539.28 C 172.24 540.07 165.14 538.96 158.14 540.03 C 152.47 540.93 146.72 540.37 141.01 540.58 C 122.09 540.53 103.16 540.93 84.25 540.30 C 75.89 538.82 67.39 540.23 59.00 539.16 C 54.60 538.58 50.08 538.76 45.82 537.34 C 52.47 534.71 59.78 536.08 66.59 534.45 C 66.53 536.44 67.46 539.00 69.89 538.80 C 75.18 538.68 81.04 539.89 85.77 536.92 C 88.93 539.55 93.66 539.54 97.31 538.09 C 101.30 535.08 99.15 529.32 99.63 525.07 Z" />
</svg>
