<?xml version="1.0" encoding="UTF-8" ?>
<!DOCTYPE svg PUBLIC "-//W3C//DTD SVG 1.1//EN" "http://www.w3.org/Graphics/SVG/1.1/DTD/svg11.dtd">
<svg width="1265pt" height="791pt" viewBox="0 0 1265 791" version="1.1" xmlns="http://www.w3.org/2000/svg">
<path fill="#ffffff" d=" M 0.00 0.00 L 1265.00 0.00 L 1265.00 791.00 L 0.00 791.00 L 0.00 0.00 Z" />
<path fill="#4c5463" d=" M 852.97 12.92 C 876.67 11.99 900.31 10.02 924.02 9.00 C 957.34 8.12 991.57 18.00 1017.47 39.44 C 1035.95 55.64 1054.16 72.14 1072.39 88.62 C 1084.08 99.97 1093.11 114.33 1097.00 130.23 C 1099.91 143.29 1099.15 156.76 1100.14 170.02 C 1101.39 198.96 1102.99 227.89 1103.82 256.84 C 1104.89 266.20 1104.16 275.66 1105.23 285.02 C 1105.76 311.70 1108.23 338.32 1107.87 365.02 C 1108.64 378.78 1103.98 392.35 1097.03 404.08 C 1086.26 422.06 1069.25 435.69 1050.39 444.45 C 1035.86 451.29 1020.03 455.13 1004.06 456.58 C 989.07 457.61 974.03 457.41 959.02 457.82 C 949.01 458.52 938.97 458.66 928.94 458.84 C 912.00 459.94 894.98 459.10 878.04 460.29 C 857.66 460.60 837.32 461.81 816.94 461.74 C 804.31 462.61 791.63 462.46 778.98 462.81 C 768.68 463.65 758.34 463.63 748.02 463.74 C 733.38 464.78 718.68 464.32 704.02 464.84 C 691.70 466.01 679.30 465.23 666.98 466.26 C 661.99 466.44 656.99 466.43 652.00 466.48 C 650.42 466.57 648.71 466.35 647.34 467.27 C 606.47 492.17 565.69 517.23 524.88 542.22 C 523.50 543.51 521.99 542.04 520.83 541.32 C 511.78 534.67 502.69 528.08 493.61 521.47 C 493.46 518.96 493.32 516.45 493.11 513.95 C 491.39 498.29 490.77 482.48 488.56 466.87 C 480.39 465.98 472.58 463.05 464.92 460.20 C 447.92 452.71 430.85 445.39 413.68 438.32 C 390.32 427.92 369.28 410.48 358.07 387.15 C 352.87 376.78 350.46 365.21 349.56 353.70 C 348.73 344.45 347.71 335.21 347.16 325.94 C 345.40 306.92 343.64 287.89 341.75 268.88 C 338.92 233.25 335.03 197.71 332.20 162.08 C 331.16 149.48 328.84 136.74 331.05 124.13 C 333.36 108.20 340.69 93.26 351.02 81.00 C 368.19 60.34 392.94 46.94 418.88 40.84 C 438.24 36.22 458.26 36.39 478.01 35.16 C 496.30 33.57 514.68 33.41 532.97 31.66 C 538.26 31.39 543.59 31.60 548.87 30.96 C 553.88 30.41 558.99 30.86 563.97 29.88 C 582.32 29.00 600.66 28.06 618.98 26.65 C 630.35 26.46 641.69 25.52 653.02 24.64 C 673.01 24.12 692.92 22.00 712.92 21.43 C 725.02 20.60 737.12 19.55 749.26 19.31 C 773.47 17.45 797.74 16.59 821.96 14.76 C 832.32 14.55 842.64 13.74 852.97 12.92 Z" />
<path fill="#ffffff" d=" M 865.98 24.69 C 885.35 24.25 904.64 22.14 924.00 21.58 C 945.11 20.74 966.44 25.11 985.43 34.41 C 998.50 40.96 1010.53 49.92 1019.65 61.42 C 1028.89 72.99 1035.20 87.13 1036.44 101.97 C 1037.39 114.70 1039.11 127.37 1039.77 140.12 L 1040.30 140.84 C 1041.68 162.61 1044.14 184.30 1045.85 206.05 C 1046.53 209.36 1046.57 212.75 1046.84 216.11 C 1048.86 236.02 1050.31 256.01 1052.34 275.93 C 1053.83 295.57 1057.05 315.23 1055.44 334.98 C 1053.28 348.38 1047.10 361.00 1038.50 371.44 C 1019.00 394.83 988.86 407.75 958.87 409.78 L 958.15 410.28 C 945.73 410.32 933.38 411.61 921.00 412.37 C 909.98 412.52 898.99 413.45 888.02 414.33 C 867.55 414.79 847.18 417.06 826.72 417.60 C 807.50 419.34 788.19 419.49 768.97 421.29 C 759.99 421.48 751.05 422.25 742.08 422.61 C 723.09 424.22 704.02 424.51 685.04 426.22 C 673.69 426.53 662.36 427.21 651.06 428.17 C 636.68 428.83 622.30 429.63 607.95 430.65 C 606.53 430.68 605.29 431.42 604.13 432.15 C 573.53 452.56 542.81 472.80 512.15 493.13 C 510.51 494.20 508.81 495.17 507.11 496.14 C 505.40 476.34 503.86 456.54 501.76 436.78 C 490.51 437.51 479.26 438.69 467.97 438.24 C 445.41 437.06 422.84 430.61 404.00 417.92 C 388.75 407.82 376.37 393.27 369.78 376.11 C 367.29 368.62 365.81 360.82 365.40 352.94 C 362.97 329.64 361.19 306.28 358.91 282.98 C 356.98 260.99 354.84 239.01 352.89 217.04 C 350.72 190.01 347.55 163.06 345.75 136.00 C 345.89 118.67 352.50 101.73 363.54 88.45 C 384.64 62.78 418.36 49.86 451.06 49.35 C 458.66 48.18 466.37 48.68 473.99 47.71 C 480.05 47.48 486.13 47.17 492.20 47.48 C 490.90 47.25 489.59 47.02 488.31 46.79 C 498.57 46.74 508.75 45.29 519.02 45.36 C 526.64 44.43 534.34 44.74 541.95 43.66 C 553.34 43.48 564.68 42.17 576.09 42.28 C 575.21 42.08 574.35 41.88 573.49 41.68 C 583.68 41.83 593.79 40.31 603.99 40.41 C 618.97 39.03 634.01 38.60 649.02 37.61 C 656.71 37.48 664.31 36.16 672.01 36.34 C 679.26 35.38 686.60 35.87 693.85 34.93 C 711.58 33.69 729.35 33.29 747.06 31.66 C 767.61 31.21 788.06 28.94 808.61 28.39 C 827.70 26.62 846.89 26.54 865.98 24.69 Z" />
<path fill="#272326" d=" M 317.43 451.44 C 321.59 449.04 327.89 449.01 330.79 453.37 C 332.91 456.85 333.87 461.23 332.71 465.20 C 327.55 465.60 322.16 466.66 318.06 470.02 C 316.81 470.93 315.07 472.70 313.48 471.45 C 311.25 469.41 309.55 466.39 309.75 463.30 C 310.02 460.42 312.47 458.65 314.17 456.58 C 315.22 454.85 315.49 452.48 317.43 451.44 Z" />
<path fill="#732f02" d=" M 319.00 452.95 C 321.34 451.85 324.16 451.79 326.64 452.45 C 330.23 454.75 331.31 459.05 331.05 463.09 C 324.97 463.47 319.36 466.03 314.55 469.67 C 313.50 467.92 312.01 466.20 312.10 464.04 C 311.76 461.55 314.14 460.17 315.47 458.47 C 316.98 456.85 317.35 454.43 319.00 452.95 Z" />
<path fill="#373537" d=" M 344.76 453.85 C 348.82 452.79 353.52 453.63 356.23 457.06 C 356.31 457.70 356.47 458.98 356.55 459.62 C 359.28 461.80 362.25 464.91 361.11 468.75 C 360.30 471.13 358.96 474.36 356.18 474.76 C 354.06 473.68 352.30 472.02 350.16 470.95 C 346.98 469.17 343.26 468.92 339.76 468.20 C 338.20 467.37 338.74 465.49 338.75 464.09 C 338.98 460.03 340.69 455.44 344.76 453.85 Z" />
<path fill="#732f02" d=" M 342.81 457.86 C 345.48 454.09 352.50 454.54 354.23 458.93 C 355.45 462.10 359.43 464.08 358.80 467.84 C 358.87 469.69 357.48 471.04 356.46 472.42 C 352.00 468.72 346.36 467.44 340.94 465.90 C 340.19 463.30 341.15 460.03 342.81 457.86 Z" />
<path fill="#050506" d=" M 326.04 474.20 C 327.35 473.71 328.67 473.24 329.97 472.72 C 333.68 472.39 337.41 472.43 341.13 472.70 C 342.41 473.22 343.71 473.73 345.01 474.25 C 346.07 474.70 347.13 475.18 348.20 475.64 C 351.97 477.91 355.38 480.69 358.76 483.50 C 360.68 482.38 362.92 482.70 365.04 482.74 C 373.36 488.52 378.78 497.32 384.88 505.19 C 390.66 506.55 395.21 513.10 392.72 518.89 C 392.47 520.18 390.49 521.76 391.96 522.91 C 402.83 536.07 414.77 550.54 415.58 568.40 C 419.09 572.44 421.42 577.36 422.65 582.56 C 424.44 581.84 426.32 581.39 428.24 581.19 C 431.64 580.34 435.36 578.33 436.58 574.91 C 433.73 571.70 430.29 568.47 429.51 564.05 C 429.02 561.19 430.35 558.41 432.55 556.64 C 434.22 556.37 435.87 556.01 437.52 555.60 C 438.76 551.81 439.79 547.96 440.52 544.05 C 440.99 540.95 443.59 537.89 446.97 538.17 C 449.46 537.81 451.64 539.11 453.43 540.70 C 454.04 542.42 454.64 544.16 455.27 545.90 C 455.32 547.09 455.38 548.29 455.44 549.49 C 457.04 549.50 458.66 549.54 460.28 549.58 C 461.31 550.33 462.34 551.08 463.39 551.85 C 463.84 552.99 464.31 554.13 464.76 555.30 C 467.20 555.28 469.62 555.74 471.33 557.64 C 471.56 558.24 472.02 559.43 472.26 560.03 C 472.28 560.82 472.32 562.42 472.34 563.22 C 471.63 564.85 470.92 566.50 470.28 568.17 C 468.72 570.63 466.46 572.50 463.85 573.77 C 462.31 575.57 460.67 577.28 458.88 578.84 C 456.63 579.86 454.25 580.58 451.76 580.69 C 451.55 581.24 451.13 582.35 450.91 582.90 C 450.21 584.56 449.49 586.21 448.77 587.87 C 445.37 594.62 439.66 600.46 432.13 602.30 C 430.87 602.34 429.62 602.40 428.37 602.46 C 434.95 620.96 439.00 640.42 439.99 660.04 C 441.21 673.72 441.86 687.47 443.44 701.13 C 437.03 702.86 430.55 704.28 424.05 705.61 C 422.67 705.71 421.65 706.70 420.67 707.54 C 414.30 713.52 406.59 718.05 398.42 721.10 C 398.27 725.30 397.50 729.45 396.37 733.50 C 396.04 729.80 395.68 726.10 395.48 722.40 C 385.18 726.08 374.42 728.14 363.61 729.62 C 363.61 733.58 363.61 737.53 363.59 741.50 C 365.26 741.52 366.93 741.54 368.60 741.57 C 368.01 747.87 368.10 754.21 367.45 760.51 C 365.99 755.00 366.96 749.25 366.66 743.63 C 364.93 743.63 363.20 743.64 361.48 743.66 C 361.34 738.97 361.47 734.29 361.41 729.61 C 352.99 731.00 344.43 730.52 335.94 730.79 C 327.40 730.52 318.80 731.02 310.34 729.56 C 310.27 734.25 310.28 738.94 310.32 743.63 C 309.66 743.12 308.32 742.10 307.66 741.59 C 307.66 737.57 307.66 733.55 307.66 729.53 C 296.83 728.14 286.13 725.84 275.78 722.33 C 275.58 728.70 275.38 735.08 275.23 741.46 C 274.35 740.72 273.50 739.95 272.65 739.21 C 272.71 737.14 272.79 735.08 273.14 733.05 C 273.35 729.08 273.44 725.11 273.47 721.14 C 265.29 718.16 257.72 713.53 251.28 707.69 C 250.26 706.89 249.28 705.85 247.93 705.69 C 241.38 704.32 234.85 702.88 228.39 701.16 C 228.56 698.80 228.70 696.43 229.13 694.11 C 229.65 685.74 230.32 677.39 231.14 669.06 C 231.79 659.03 232.38 648.98 234.01 639.06 C 235.32 631.56 236.99 624.14 238.83 616.76 L 239.11 616.24 C 240.24 611.65 241.80 607.19 243.22 602.68 C 239.83 602.47 236.54 601.06 233.12 601.55 C 230.15 602.08 227.66 603.92 225.30 605.68 C 227.90 607.70 228.06 611.00 227.50 614.01 C 225.76 615.47 223.99 616.89 222.40 618.51 C 222.88 620.08 223.70 621.53 224.45 622.99 C 224.54 626.01 222.60 629.87 219.16 629.80 C 215.01 630.44 212.02 627.03 209.89 624.00 C 208.82 620.60 209.93 616.95 209.11 613.60 C 207.24 617.21 205.20 621.35 201.17 622.93 C 199.41 623.85 197.49 622.71 195.72 622.42 C 194.82 620.99 193.94 619.55 193.13 618.08 C 190.04 616.92 188.21 614.15 187.59 611.01 C 189.04 603.68 196.92 601.22 203.03 598.99 C 206.73 597.44 212.15 599.64 214.34 595.37 C 220.91 586.60 231.37 578.90 242.91 580.81 C 244.97 581.60 247.04 582.38 249.12 583.14 C 249.96 577.89 252.83 573.42 255.39 568.93 C 255.87 555.45 262.94 543.39 270.97 532.99 C 273.81 529.07 277.32 525.64 279.79 521.44 C 277.27 518.42 277.14 514.41 278.63 510.90 C 280.09 508.98 281.62 506.97 283.97 506.13 C 287.70 504.70 289.25 500.67 291.64 497.78 C 296.26 492.45 300.11 485.66 306.84 482.81 C 308.28 482.31 309.69 481.72 311.10 481.13 C 316.91 480.81 320.86 476.21 326.04 474.20 Z" />
<path fill="#807b76" d=" M 328.61 475.66 C 333.41 473.91 339.42 473.54 343.86 476.42 C 338.85 475.22 333.70 475.44 328.61 475.66 Z" />
<path fill="#fefefc" d=" M 325.15 477.37 C 326.30 476.80 327.45 476.24 328.61 475.66 C 333.70 475.44 338.85 475.22 343.86 476.42 C 344.55 476.60 345.24 476.82 345.93 477.08 C 347.72 478.29 349.54 479.47 351.37 480.64 C 351.87 481.06 352.88 481.90 353.38 482.32 L 353.27 482.70 C 353.08 482.71 352.69 482.73 352.50 482.74 C 348.74 480.87 345.27 478.11 340.98 477.59 C 335.12 477.01 328.64 476.59 323.63 480.27 C 323.07 480.41 321.94 480.68 321.38 480.82 C 321.44 480.35 321.58 479.42 321.64 478.95 C 322.81 478.43 323.98 477.89 325.15 477.37 Z" />
<path fill="#fccbac" d=" M 323.63 480.27 C 328.64 476.59 335.12 477.01 340.98 477.59 C 345.27 478.11 348.74 480.87 352.50 482.74 C 352.69 482.73 353.08 482.71 353.27 482.70 L 354.01 482.70 C 358.71 486.03 361.93 490.99 365.97 495.04 C 373.78 504.25 381.54 513.50 389.14 522.89 C 398.46 534.29 408.58 545.94 412.23 560.58 C 413.10 565.73 413.03 571.11 411.93 576.22 C 411.91 573.12 411.81 570.03 411.80 566.93 C 405.05 580.68 390.91 590.23 375.92 592.49 C 378.42 588.47 380.24 583.96 380.79 579.23 C 382.19 573.27 381.34 567.11 381.55 561.06 C 384.40 558.65 387.21 556.20 390.03 553.76 C 390.86 555.15 391.71 556.55 392.57 557.95 C 392.31 555.46 392.37 552.45 390.10 550.81 C 388.15 548.90 385.24 549.59 382.78 549.53 C 384.58 550.32 386.40 551.10 388.21 551.91 C 384.49 555.84 380.24 559.20 375.74 562.20 C 366.94 567.36 357.11 570.98 346.89 571.82 L 346.19 572.35 C 339.08 572.50 331.98 572.51 324.87 572.35 L 324.15 571.82 C 312.69 570.82 301.56 566.56 292.11 560.03 C 288.76 557.60 285.68 554.83 282.79 551.87 C 284.71 551.07 286.64 550.30 288.57 549.53 C 285.98 549.63 282.90 548.86 280.82 550.86 C 278.77 552.43 278.74 555.16 278.61 557.51 C 279.21 556.58 280.43 554.72 281.04 553.79 C 283.84 556.22 286.63 558.67 289.50 561.02 C 289.64 570.50 288.37 580.68 293.34 589.27 C 293.86 590.32 294.43 591.35 295.03 592.37 C 288.30 591.92 282.15 588.82 276.42 585.49 C 268.27 580.62 261.39 573.23 258.18 564.20 C 260.02 551.65 267.41 540.83 275.20 531.16 C 282.35 522.17 289.77 513.40 297.01 504.47 C 297.32 504.39 297.95 504.25 298.27 504.17 C 299.76 510.78 304.57 516.55 310.97 518.89 C 320.56 522.70 332.64 517.36 336.20 507.65 C 339.38 515.40 349.02 519.70 356.77 516.16 C 364.57 513.19 368.29 503.60 365.08 496.00 C 362.81 491.99 359.18 488.58 354.61 487.49 C 351.71 487.05 348.77 487.32 345.87 487.52 C 342.35 489.17 339.21 491.55 337.11 494.87 C 336.06 491.61 334.54 488.43 332.04 486.02 C 329.78 483.37 326.41 482.23 323.63 480.27 Z" />
<path fill="#fcfdfe" d=" M 311.00 483.18 C 312.66 482.67 314.32 482.15 315.98 481.63 C 319.46 481.69 322.87 482.51 326.15 483.63 C 331.45 486.66 335.41 492.05 335.82 498.26 C 332.92 493.89 329.44 489.39 324.31 487.61 C 319.56 486.10 314.07 486.05 309.64 488.56 C 306.82 490.10 304.51 492.38 302.16 494.53 C 302.17 493.62 302.18 492.70 302.21 491.80 C 302.47 488.52 305.56 486.62 307.82 484.65 C 308.87 484.15 309.93 483.66 311.00 483.18 Z" />
<path fill="#772e04" d=" M 360.87 485.52 C 361.94 485.49 364.09 485.41 365.16 485.37 C 371.71 491.06 376.71 498.20 381.88 505.10 C 381.12 505.55 379.60 506.43 378.84 506.87 C 373.03 499.60 366.83 492.66 360.87 485.52 Z" />
<path fill="#e0f2fe" d=" M 309.64 488.56 C 314.07 486.05 319.56 486.10 324.31 487.61 C 329.44 489.39 332.92 493.89 335.82 498.26 C 336.28 504.41 333.33 510.77 328.13 514.17 C 322.37 518.11 314.41 518.39 308.44 514.74 C 303.73 512.12 301.00 507.17 299.68 502.11 C 299.68 500.38 299.69 498.66 299.72 496.95 C 300.06 495.89 300.39 494.82 300.71 493.76 C 301.09 492.92 301.85 491.23 302.23 490.38 L 302.21 491.80 C 302.18 492.70 302.17 493.62 302.16 494.53 C 304.51 492.38 306.82 490.10 309.64 488.56 Z" />
<path fill="#fcfdfb" d=" M 340.70 492.72 C 344.14 489.83 348.54 488.16 353.08 488.64 C 354.77 489.31 356.47 489.97 358.17 490.62 C 360.42 492.27 362.14 494.46 363.56 496.85 C 363.31 497.32 362.80 498.27 362.55 498.74 C 359.36 496.58 356.10 493.96 352.08 493.84 C 347.78 493.70 343.12 494.97 340.08 498.15 C 338.59 500.48 338.44 503.38 337.92 506.04 C 336.51 501.40 337.45 496.36 340.70 492.72 Z" />
<path fill="#762e03" d=" M 289.02 505.24 C 292.22 501.22 295.11 496.94 298.55 493.11 C 298.29 495.52 298.68 498.21 297.34 500.38 C 295.89 502.73 293.96 504.73 292.17 506.82 C 291.38 506.43 289.80 505.64 289.02 505.24 Z" />
<path fill="#e0f2fd" d=" M 340.08 498.15 C 343.12 494.97 347.78 493.70 352.08 493.84 C 356.10 493.96 359.36 496.58 362.55 498.74 C 362.80 498.27 363.31 497.32 363.56 496.85 C 365.68 502.41 363.58 509.10 358.51 512.28 C 351.67 517.11 340.79 514.05 337.92 506.04 C 338.44 503.38 338.59 500.48 340.08 498.15 Z" />
<path fill="#050506" d=" M 324.67 500.30 C 325.89 500.37 327.12 500.43 328.34 500.64 C 328.21 501.67 327.96 502.68 327.72 503.69 C 326.73 503.55 325.74 503.42 324.76 503.28 C 324.73 502.28 324.69 501.29 324.67 500.30 Z" />
<path fill="#040609" d=" M 343.54 500.42 C 344.61 500.36 345.70 500.32 346.78 500.29 C 346.74 501.38 346.70 502.48 346.65 503.58 C 345.64 503.52 344.64 503.46 343.64 503.40 C 343.60 502.40 343.56 501.41 343.54 500.42 Z" />
<path fill="#efa890" d=" M 281.79 510.79 C 283.69 508.00 287.19 507.33 290.34 507.94 C 288.90 511.39 286.18 514.04 283.91 516.94 C 283.10 518.11 281.82 518.74 280.56 519.31 C 280.35 516.46 279.56 513.09 281.79 510.79 Z" />
<path fill="#eca88d" d=" M 384.33 513.55 C 382.92 511.77 380.94 510.07 381.25 507.56 C 384.15 507.68 387.49 508.06 389.24 510.73 C 391.51 513.20 390.65 516.74 390.22 519.72 C 387.88 518.04 386.12 515.77 384.33 513.55 Z" />
<path fill="#110a09" d=" M 330.22 518.11 C 339.53 516.68 349.59 519.00 356.82 525.18 C 361.04 528.88 364.13 534.35 363.63 540.11 C 363.36 548.54 356.42 555.13 349.05 558.19 C 342.77 561.04 335.68 561.09 328.97 560.29 C 320.94 558.76 312.87 554.32 309.10 546.79 C 305.91 540.66 307.22 532.82 311.76 527.71 C 316.39 522.36 323.20 518.90 330.22 518.11 Z" />
<path fill="#f9b1a3" d=" M 310.39 534.03 C 319.45 515.13 351.39 514.95 360.47 533.89 L 360.32 534.32 C 360.25 534.52 360.11 534.92 360.04 535.12 C 359.77 539.32 356.87 542.44 353.31 544.32 C 343.37 550.30 330.51 550.69 320.05 545.84 C 315.34 543.52 311.00 539.52 310.39 534.03 Z" />
<path fill="#fefefc" d=" M 324.34 526.51 C 330.52 522.48 339.12 521.93 345.49 525.83 C 347.17 526.77 347.03 529.07 346.60 530.69 C 341.02 535.46 332.13 535.64 325.96 531.92 C 323.77 530.94 324.50 528.41 324.34 526.51 Z" />
<path fill="#f69d8d" d=" M 310.98 544.88 C 309.33 541.45 309.74 537.64 310.39 534.03 C 311.00 539.52 315.34 543.52 320.05 545.84 C 330.51 550.69 343.37 550.30 353.31 544.32 C 356.87 542.44 359.77 539.32 360.04 535.12 C 360.11 534.92 360.25 534.52 360.32 534.32 C 361.58 534.59 361.05 536.53 361.29 537.53 C 361.78 543.76 358.25 549.79 353.13 553.17 C 349.26 556.02 344.54 557.21 339.94 558.29 C 336.98 558.43 334.02 558.44 331.06 558.30 C 323.04 556.72 314.28 552.95 310.98 544.88 Z" />
<path fill="#fbcbae" d=" M 442.85 544.50 C 443.22 542.04 445.37 539.81 448.03 540.50 C 450.17 540.32 451.22 542.48 452.46 543.83 C 453.09 548.62 452.50 553.45 450.06 557.69 C 446.72 557.00 443.35 556.44 439.94 556.42 C 441.01 552.47 442.09 548.52 442.85 544.50 Z" />
<path fill="#2c2222" d=" M 280.82 550.86 C 282.90 548.86 285.98 549.63 288.57 549.53 C 286.64 550.30 284.71 551.07 282.79 551.87 C 285.68 554.83 288.76 557.60 292.11 560.03 C 291.67 560.51 290.79 561.47 290.35 561.95 C 289.58 571.19 291.11 580.34 293.34 589.27 C 288.37 580.68 289.64 570.50 289.50 561.02 C 286.63 558.67 283.84 556.22 281.04 553.79 C 280.43 554.72 279.21 556.58 278.61 557.51 C 278.74 555.16 278.77 552.43 280.82 550.86 Z" />
<path fill="#2c231b" d=" M 382.78 549.53 C 385.24 549.59 388.15 548.90 390.10 550.81 C 392.37 552.45 392.31 555.46 392.57 557.95 C 391.71 556.55 390.86 555.15 390.03 553.76 C 387.21 556.20 384.40 558.65 381.55 561.06 C 381.34 567.11 382.19 573.27 380.79 579.23 C 380.47 573.06 380.57 566.89 380.50 560.72 C 378.90 561.19 377.31 561.66 375.74 562.20 C 380.24 559.20 384.49 555.84 388.21 551.91 C 386.40 551.10 384.58 550.32 382.78 549.53 Z" />
<path fill="#fccbad" d=" M 449.71 561.95 C 451.49 558.52 453.61 555.24 454.91 551.57 C 457.05 551.65 459.18 552.04 461.24 552.66 C 461.64 553.82 462.01 554.99 462.36 556.18 C 461.04 560.07 458.49 563.37 456.02 566.59 C 454.26 566.70 452.50 566.73 450.74 566.69 C 450.37 565.14 448.87 563.57 449.71 561.95 Z" />
<path fill="#fbcaae" d=" M 463.74 558.43 C 464.88 558.11 466.01 557.79 467.17 557.50 C 467.75 557.87 468.92 558.62 469.51 559.00 C 470.59 563.48 468.11 567.48 465.31 570.73 C 463.76 570.68 462.19 570.74 460.68 570.41 C 459.77 569.39 459.07 568.23 458.32 567.13 C 460.38 564.40 462.22 561.50 463.74 558.43 Z" />
<path fill="#fccbaf" d=" M 434.52 558.67 C 438.89 558.24 443.29 558.69 447.67 558.80 C 447.63 560.03 447.63 561.27 447.43 562.50 C 445.25 564.72 442.01 564.40 439.18 564.72 C 439.75 565.35 440.32 565.99 440.89 566.64 C 443.26 566.39 445.60 565.89 447.93 565.35 C 448.56 566.34 449.20 567.34 449.85 568.33 C 451.21 568.69 452.57 569.06 453.94 569.43 C 454.64 569.20 456.05 568.72 456.75 568.49 C 458.06 570.39 459.55 572.17 461.11 573.89 C 458.88 575.59 456.55 577.16 454.09 578.49 C 451.37 578.21 448.70 577.66 446.07 576.95 C 442.38 575.15 438.22 573.75 435.60 570.42 C 433.71 568.25 432.48 565.64 431.46 563.00 C 432.31 561.52 432.46 558.96 434.52 558.67 Z" />
<path fill="#000000" d=" M 292.11 560.03 C 301.56 566.56 312.69 570.82 324.15 571.82 L 324.87 572.35 C 331.98 572.51 339.08 572.50 346.19 572.35 L 346.89 571.82 C 357.11 570.98 366.94 567.36 375.74 562.20 C 377.31 561.66 378.90 561.19 380.50 560.72 C 380.57 566.89 380.47 573.06 380.79 579.23 C 380.24 583.96 378.42 588.47 375.92 592.49 C 371.70 598.55 365.11 602.75 357.99 604.53 C 347.55 607.21 336.69 606.22 326.04 606.32 C 314.47 606.07 301.74 602.56 295.03 592.37 C 294.43 591.35 293.86 590.32 293.34 589.27 C 291.11 580.34 289.58 571.19 290.35 561.95 C 290.79 561.47 291.67 560.51 292.11 560.03 Z" />
<path fill="#eaa78d" d=" M 262.10 584.80 C 258.78 578.51 257.60 571.25 258.18 564.20 C 261.39 573.23 268.27 580.62 276.42 585.49 C 282.15 588.82 288.30 591.92 295.03 592.37 C 301.74 602.56 314.47 606.07 326.04 606.32 C 336.69 606.22 347.55 607.21 357.99 604.53 C 365.11 602.75 371.70 598.55 375.92 592.49 C 390.91 590.23 405.05 580.68 411.80 566.93 C 411.81 570.03 411.91 573.12 411.93 576.22 C 409.88 587.30 401.55 596.35 391.88 601.62 C 377.27 609.57 360.30 611.41 343.94 611.70 C 324.76 611.89 304.93 612.20 286.75 605.16 C 276.65 601.30 267.14 594.60 262.10 584.80 Z" />
<path fill="#6f7074" d=" M 251.33 585.87 C 251.41 581.26 253.40 577.01 255.47 573.00 C 256.77 578.19 258.00 583.52 260.87 588.13 C 264.61 594.85 270.61 599.91 276.97 604.06 C 291.66 615.29 305.97 627.00 320.60 638.30 C 325.36 642.20 330.48 645.66 334.95 649.91 C 317.10 643.60 299.41 636.87 281.64 630.33 C 281.13 627.11 280.60 623.90 280.18 620.67 C 277.17 620.62 274.17 620.61 271.16 620.61 C 266.50 614.34 261.82 608.07 257.09 601.84 C 253.55 597.32 250.98 591.72 251.33 585.87 Z" />
<path fill="#6f7074" d=" M 415.57 572.54 C 421.75 580.08 422.26 591.60 416.41 599.48 C 411.23 606.55 405.96 613.56 400.74 620.61 C 397.74 620.59 394.73 620.58 391.73 620.60 C 391.29 623.84 390.75 627.07 390.28 630.32 C 372.56 636.82 354.91 643.52 337.13 649.86 C 340.30 646.41 344.21 643.79 347.86 640.89 C 364.48 627.86 381.02 614.73 397.63 601.69 C 402.92 597.65 407.82 592.86 410.89 586.88 C 413.37 582.44 414.36 577.42 415.57 572.54 Z" />
<path fill="#6f7074" d=" M 431.82 582.50 C 434.94 581.46 437.06 578.78 439.09 576.35 C 442.21 577.88 445.51 578.99 448.72 580.35 C 448.50 584.33 446.09 587.75 444.03 591.02 C 440.52 596.47 434.37 600.14 427.84 600.25 C 426.37 599.35 425.12 598.17 423.80 597.09 C 429.89 612.44 433.95 628.56 436.26 644.89 C 434.23 650.47 430.21 654.94 426.53 659.47 C 421.69 665.41 415.45 669.98 409.07 674.12 C 401.01 679.71 391.67 682.96 382.63 686.56 C 367.88 690.65 352.64 694.03 337.23 693.35 C 337.21 679.71 337.13 666.07 337.28 652.44 C 355.64 645.72 373.97 638.90 392.32 632.13 C 392.82 629.16 393.30 626.19 393.65 623.21 C 396.38 622.95 399.13 622.93 401.86 622.59 C 403.68 621.15 404.84 619.05 406.24 617.23 C 410.51 611.23 415.27 605.56 419.29 599.38 C 422.10 595.03 422.95 589.82 423.13 584.73 C 426.02 583.97 428.97 583.44 431.82 582.50 Z" />
<path fill="#6f7074" d=" M 233.02 584.21 C 238.14 582.52 243.72 583.34 248.56 585.56 C 249.02 590.85 250.15 596.28 253.35 600.67 C 258.64 608.08 264.36 615.18 269.57 622.65 C 272.47 622.77 275.36 622.96 278.25 623.28 C 278.55 626.26 279.02 629.23 279.60 632.19 C 297.97 638.95 316.35 645.66 334.66 652.57 C 334.53 666.60 334.68 680.64 334.57 694.68 C 328.56 693.58 322.46 693.15 316.39 692.50 C 301.21 690.27 286.01 686.80 272.29 679.71 C 257.62 672.79 244.95 661.84 236.22 648.16 C 235.86 649.15 235.51 650.16 235.18 651.18 C 236.37 632.59 241.47 614.41 247.95 597.02 C 246.67 598.21 245.42 599.43 244.18 600.67 C 240.59 600.02 236.99 598.93 233.30 599.26 C 229.72 599.57 226.77 601.83 223.86 603.72 C 221.10 601.56 218.17 599.64 215.00 598.14 C 219.85 592.26 225.55 586.52 233.02 584.21 Z" />
<path fill="#f57f79" d=" M 325.84 593.91 C 329.58 592.44 333.09 594.84 335.60 597.41 C 338.00 594.47 342.05 592.35 345.79 594.09 C 350.14 595.57 351.84 600.28 352.71 604.37 C 341.32 605.70 329.77 605.65 318.37 604.40 C 319.06 600.01 321.17 595.20 325.84 593.91 Z" />
<path fill="#fccbae" d=" M 195.55 604.69 C 201.14 601.86 207.47 599.40 213.83 600.64 C 218.08 601.60 221.32 604.79 224.13 607.92 C 225.31 609.06 225.87 610.58 225.56 612.24 C 223.80 614.42 221.52 616.07 219.49 617.98 C 220.13 619.30 220.77 620.62 221.46 621.93 C 221.55 623.38 221.60 624.83 221.65 626.29 C 218.88 628.57 215.24 627.35 213.41 624.56 C 210.79 621.61 211.13 617.35 212.32 613.87 C 211.04 612.43 210.02 610.23 207.83 610.16 C 202.15 609.52 198.61 615.97 192.92 615.31 C 191.66 614.58 190.41 613.41 190.43 611.85 C 189.79 608.45 192.89 606.06 195.55 604.69 Z" />
<path fill="#bed4de" d=" M 345.78 614.79 C 359.36 614.91 372.87 612.55 385.75 608.32 C 381.70 610.92 378.10 614.13 374.29 617.05 L 374.12 617.06 C 366.26 617.32 358.53 618.94 350.73 619.80 C 349.05 618.15 347.40 616.49 345.78 614.79 Z" />
<path fill="#bfd3dd" d=" M 287.23 609.12 C 299.85 612.70 312.86 615.02 326.03 614.84 C 324.40 616.49 322.76 618.13 321.09 619.75 C 313.41 619.16 305.83 617.51 298.12 617.43 L 297.80 617.42 C 294.39 614.52 290.81 611.81 287.23 609.12 Z" />
<path fill="#f4a993" d=" M 196.03 617.81 C 199.73 616.19 203.01 613.77 206.75 612.22 C 205.47 616.55 202.11 622.25 196.74 620.42 C 196.50 619.54 196.26 618.67 196.03 617.81 Z" />
<path fill="#9d0b0f" d=" M 324.72 619.46 C 326.27 617.89 327.42 615.30 329.92 615.21 C 334.39 614.59 338.93 614.90 343.40 615.35 C 344.50 616.54 345.61 617.73 346.72 618.92 C 339.40 619.69 332.05 619.10 324.72 619.46 Z" />
<path fill="#fdfdfc" d=" M 350.73 619.80 C 358.53 618.94 366.26 617.32 374.12 617.06 C 369.25 620.87 364.65 625.08 359.34 628.28 C 356.52 625.41 353.66 622.57 350.73 619.80 Z" />
<path fill="#fdfdfc" d=" M 298.12 617.43 C 305.83 617.51 313.41 619.16 321.09 619.75 C 318.32 622.33 315.65 625.00 312.96 627.66 C 312.48 627.70 311.53 627.77 311.06 627.80 C 306.85 624.21 302.34 620.99 298.12 617.43 Z" />
<path fill="#c9151d" d=" M 324.72 619.46 C 332.05 619.10 339.40 619.69 346.72 618.92 C 346.77 619.44 346.88 620.47 346.94 620.99 C 344.62 622.95 342.50 625.36 339.62 626.50 C 336.96 626.94 334.16 626.97 331.53 626.32 C 328.34 624.81 326.10 621.96 323.68 619.50 L 324.72 619.46 Z" />
<path fill="#e2f4fc" d=" M 344.25 626.35 C 345.87 624.65 347.60 623.07 349.17 621.33 C 352.24 624.07 355.09 627.04 357.98 629.97 C 354.63 632.45 351.45 635.18 347.94 637.45 C 346.79 633.74 344.54 630.24 344.25 626.35 Z" />
<path fill="#e0f6fb" d=" M 314.22 629.41 C 316.89 626.68 319.81 624.22 322.33 621.34 C 324.15 623.06 325.94 624.82 327.82 626.49 C 326.60 630.28 325.21 634.01 323.63 637.66 C 320.69 635.16 317.50 632.97 314.54 630.50 C 314.46 630.23 314.30 629.68 314.22 629.41 Z" />
<path fill="#c7161e" d=" M 329.60 628.29 C 333.78 629.04 338.05 628.99 342.25 628.39 C 343.41 631.90 345.18 635.24 345.78 638.91 C 343.11 642.09 339.52 644.75 335.91 646.80 C 331.93 645.11 329.01 641.51 325.46 639.06 C 326.83 635.47 328.21 631.88 329.60 628.29 Z" />
<path fill="#272326" d=" M 252.97 644.01 C 263.30 645.53 273.56 647.51 283.78 649.58 C 283.30 652.32 282.82 655.05 282.34 657.80 C 271.94 656.80 261.74 654.28 251.46 652.45 C 251.91 649.62 252.41 646.81 252.97 644.01 Z" />
<path fill="#272326" d=" M 387.95 649.72 C 398.12 647.37 408.43 645.56 418.76 644.03 C 419.16 646.79 420.50 649.74 419.81 652.49 C 409.76 654.54 399.66 656.58 389.48 657.91 C 388.96 655.17 388.46 652.44 387.95 649.72 Z" />
<path fill="#5f6062" d=" M 436.26 644.89 C 438.06 663.03 439.19 681.23 440.66 699.40 C 408.02 707.54 374.42 711.76 340.79 712.33 C 339.32 709.71 337.19 707.18 337.22 704.02 C 337.06 700.46 337.23 696.90 337.23 693.35 C 352.64 694.03 367.88 690.65 382.63 686.56 C 391.67 682.96 401.01 679.71 409.07 674.12 C 415.45 669.98 421.69 665.41 426.53 659.47 C 430.21 654.94 434.23 650.47 436.26 644.89 Z" />
<path fill="#707074" d=" M 254.26 645.90 C 263.40 647.43 272.48 649.25 281.61 650.86 C 281.38 652.55 281.14 654.24 280.90 655.95 C 271.71 654.65 262.64 652.56 253.47 651.14 C 253.72 649.38 253.99 647.64 254.26 645.90 Z" />
<path fill="#717174" d=" M 390.19 650.84 C 399.34 649.32 408.42 647.33 417.60 645.94 C 417.80 647.67 418.00 649.41 418.21 651.16 C 409.06 652.59 400.01 654.59 390.86 655.97 C 390.63 654.25 390.40 652.54 390.19 650.84 Z" />
<path fill="#5f6062" d=" M 236.22 648.16 C 244.95 661.84 257.62 672.79 272.29 679.71 C 286.01 686.80 301.21 690.27 316.39 692.50 C 322.46 693.15 328.56 693.58 334.57 694.68 C 334.55 698.43 334.92 702.21 334.44 705.95 C 333.64 708.21 332.29 710.22 331.09 712.28 C 297.46 711.80 263.83 707.61 231.20 699.39 C 231.67 687.55 233.15 675.78 233.83 663.96 C 234.42 659.71 234.06 655.34 235.18 651.18 C 235.51 650.16 235.86 649.15 236.22 648.16 Z" />
<path fill="#3f3f41" d=" M 253.92 707.14 C 278.63 711.14 303.56 714.56 328.64 714.57 C 328.86 715.79 329.09 717.02 329.32 718.26 C 310.83 717.70 292.35 716.41 274.04 713.76 C 269.87 713.06 265.67 712.45 261.44 712.42 L 261.13 712.41 C 258.73 710.65 256.32 708.90 253.92 707.14 Z" />
<path fill="#3f3f41" d=" M 343.26 714.54 C 368.20 714.50 393.01 711.26 417.55 707.08 C 415.30 708.89 413.21 711.05 410.53 712.24 C 397.32 713.42 384.24 715.82 371.00 716.72 C 361.71 717.61 352.37 717.68 343.06 718.15 C 343.12 716.94 343.19 715.74 343.26 714.54 Z" />
<path fill="#3d3d3f" d=" M 330.29 715.51 C 332.86 714.01 334.50 711.52 335.85 708.95 C 337.25 711.38 338.71 713.93 341.29 715.30 C 342.59 719.61 343.05 724.31 341.51 728.63 C 341.14 725.17 340.96 721.69 340.89 718.22 C 337.36 716.76 333.61 717.14 330.07 718.34 C 330.13 717.63 330.23 716.22 330.29 715.51 Z" />
<path fill="#606062" d=" M 261.44 712.42 C 265.67 712.45 269.87 713.06 274.04 713.76 C 292.35 716.41 310.83 717.70 329.32 718.26 C 329.26 721.68 329.21 725.11 329.08 728.53 C 305.89 727.67 281.55 724.96 261.44 712.42 Z" />
<path fill="#606063" d=" M 371.00 716.72 C 384.24 715.82 397.32 713.42 410.53 712.24 C 390.59 724.99 366.21 727.62 343.09 728.51 C 343.08 725.05 343.07 721.60 343.06 718.15 C 352.37 717.68 361.71 717.61 371.00 716.72 Z" />
<path fill="#606062" d=" M 330.07 718.34 C 333.61 717.14 337.36 716.76 340.89 718.22 C 340.96 721.69 341.14 725.17 341.51 728.63 C 337.73 728.46 333.95 728.48 330.18 728.54 C 330.15 725.13 330.14 721.73 330.07 718.34 Z" />
<path fill="#000000" d=" M 396.37 733.50 C 397.50 729.45 398.27 725.30 398.42 721.10 C 398.04 728.85 398.88 736.61 398.58 744.36 C 400.00 745.00 401.42 745.65 402.85 746.31 C 404.58 747.12 406.31 747.97 408.03 748.84 C 409.13 749.44 410.26 750.06 411.40 750.65 C 413.98 752.64 416.58 754.95 417.42 758.25 C 417.53 760.61 417.04 763.52 414.52 764.47 C 408.45 766.53 402.02 763.95 395.83 765.23 C 392.89 764.71 390.22 763.37 387.91 761.51 C 384.69 766.07 378.76 765.55 373.86 765.09 C 371.16 764.75 368.31 763.24 367.45 760.51 C 368.10 754.21 368.01 747.87 368.60 741.57 C 377.89 741.59 387.18 741.61 396.46 741.55 C 396.41 738.86 396.36 736.18 396.37 733.50 Z" />
<path fill="#5f6062" d=" M 275.78 722.33 C 286.13 725.84 296.83 728.14 307.66 729.53 C 307.66 733.55 307.66 737.57 307.66 741.59 C 296.85 741.47 286.03 741.80 275.23 741.46 C 275.38 735.08 275.58 728.70 275.78 722.33 Z" />
<path fill="#5f6062" d=" M 363.61 729.62 C 374.42 728.14 385.18 726.08 395.48 722.40 C 395.68 726.10 396.04 729.80 396.37 733.50 C 396.36 736.18 396.41 738.86 396.46 741.55 C 387.18 741.61 377.89 741.59 368.60 741.57 C 366.93 741.54 365.26 741.52 363.59 741.50 C 363.61 737.53 363.61 733.58 363.61 729.62 Z" />
<path fill="#ffffff" d=" M 310.32 743.63 C 310.28 738.94 310.27 734.25 310.34 729.56 C 318.80 731.02 327.40 730.52 335.94 730.79 C 344.43 730.52 352.99 731.00 361.41 729.61 C 361.47 734.29 361.34 738.97 361.48 743.66 L 361.55 744.46 C 363.04 744.91 364.55 745.29 366.07 745.70 C 366.25 749.36 366.16 753.02 365.83 756.67 C 351.86 756.79 337.90 756.68 323.94 756.71 C 317.99 756.58 312.03 756.56 306.13 757.37 C 305.66 752.81 305.41 748.22 305.33 743.64 C 306.99 743.63 308.66 743.64 310.32 743.63 Z" />
<path fill="#000000" d=" M 272.65 739.21 C 273.50 739.95 274.35 740.72 275.23 741.46 C 286.03 741.80 296.85 741.47 307.66 741.59 C 308.32 742.10 309.66 743.12 310.32 743.63 C 308.66 743.64 306.99 743.63 305.33 743.64 C 304.97 749.26 305.87 755.02 304.41 760.51 C 302.24 765.79 295.60 765.49 290.86 765.23 C 287.99 765.35 285.70 763.59 284.00 761.48 C 281.94 762.95 279.85 764.85 277.13 764.72 C 270.77 764.59 264.32 766.04 258.02 764.75 C 255.28 764.29 254.43 761.26 254.43 758.88 C 255.30 752.97 261.21 750.25 265.87 747.69 C 266.91 747.22 267.95 746.74 269.00 746.28 C 270.19 745.80 271.39 745.36 272.61 744.95 C 272.67 743.03 272.67 741.11 272.65 739.21 Z" />
<path fill="#d7e9f3" d=" M 361.48 743.66 C 363.20 743.64 364.93 743.63 366.66 743.63 C 366.96 749.25 365.99 755.00 367.45 760.51 C 368.31 763.24 371.16 764.75 373.86 765.09 C 378.76 765.55 384.69 766.07 387.91 761.51 C 390.22 763.37 392.89 764.71 395.83 765.23 C 402.02 763.95 408.45 766.53 414.52 764.47 C 417.04 763.52 417.53 760.61 417.42 758.25 C 424.99 758.59 432.53 759.30 440.08 759.99 C 443.34 760.36 446.97 760.47 449.47 762.92 C 435.36 766.69 420.57 766.06 406.11 766.64 C 392.45 768.13 378.68 767.08 364.98 768.03 C 346.34 768.39 327.69 768.06 309.04 768.21 C 295.38 767.56 281.70 767.56 268.02 767.40 C 254.58 766.25 241.05 766.16 227.66 764.34 C 226.08 764.10 224.51 763.70 223.09 762.97 C 223.60 760.40 227.06 760.98 229.04 760.35 C 237.47 759.63 245.96 757.99 254.43 758.88 C 254.43 761.26 255.28 764.29 258.02 764.75 C 264.32 766.04 270.77 764.59 277.13 764.72 C 279.85 764.85 281.94 762.95 284.00 761.48 C 285.70 763.59 287.99 765.35 290.86 765.23 C 295.60 765.49 302.24 765.79 304.41 760.51 C 305.87 755.02 304.97 749.26 305.33 743.64 C 305.41 748.22 305.66 752.81 306.13 757.37 C 312.03 756.56 317.99 756.58 323.94 756.71 C 337.90 756.68 351.86 756.79 365.83 756.67 C 366.16 753.02 366.25 749.36 366.07 745.70 C 364.55 745.29 363.04 744.91 361.55 744.46 L 361.48 743.66 Z" />
</svg>
